<svg xmlns="http://www.w3.org/2000/svg" xmlns:xlink="http://www.w3.org/1999/xlink" viewBox="0 0 371.07 88.44"><defs><style>.cls-1,.cls-2{fill:none;}.cls-2{clip-rule:evenodd;}.cls-3{clip-path:url(#clip-path);}.cls-4{fill:#5d3c14;}.cls-5{clip-path:url(#clip-path-2);}.cls-6{fill:#487fbf;}.cls-7{clip-path:url(#clip-path-3);}.cls-8{clip-path:url(#clip-path-4);}.cls-9{fill:#fff;}.cls-10{clip-path:url(#clip-path-5);}.cls-11{fill:#dda02f;}.cls-12{clip-path:url(#clip-path-6);}.cls-13{clip-path:url(#clip-path-8);}.cls-14{fill:#ac2b20;}.cls-15{clip-path:url(#clip-path-9);}.cls-16{font-size:34px;fill:#fefefe;font-family:SFCompactText-Regular, SF Compact Text;}.cls-17{letter-spacing:0em;}.cls-18{letter-spacing:0.01em;}.cls-19{letter-spacing:0em;}.cls-20{letter-spacing:0em;}.cls-21{letter-spacing:0.01em;}.cls-22{letter-spacing:-0.08em;}</style><clipPath id="clip-path" transform="translate(2 2)"><rect class="cls-1" y="62.77" width="71.26" height="2.68"/></clipPath><clipPath id="clip-path-2" transform="translate(2 2)"><rect class="cls-1" y="68.04" width="71.26" height="2.68"/></clipPath><clipPath id="clip-path-3" transform="translate(2 2)"><path class="cls-2" d="M57.59,0l.24,12h.6v4a3.46,3.46,0,0,1-.08,6.62l.7,24.2H71.26v2.9H0v-2.9H55.84l.78-24.18a3.44,3.44,0,0,1-2.57-3.05l0-.29a3.44,3.44,0,0,1,2.43-3.3V12h.6L57.29,0Z"/></clipPath><clipPath id="clip-path-4" transform="translate(2 2)"><rect class="cls-1" x="-520" y="-13438" width="3664" height="14138"/></clipPath><clipPath id="clip-path-5" transform="translate(2 2)"><rect class="cls-1" y="52.21" width="71.26" height="2.68"/></clipPath><clipPath id="clip-path-6" transform="translate(2 2)"><path class="cls-1" d="M35.34,29.5s0,.06,0,.07,0,0,0,.11,0,0,0,.09,0,0,0,.06,0,0,0,.05,0,0,0,.05,0,0,0,.06,0,0-.08,0,0,0-.07,0,0,0,0,.1a.14.14,0,0,1,.08.07h0l0,0h0a.29.29,0,0,1,.2.27.28.28,0,0,1-.26.28l0,.05s0,0,0,.06S35,31,35,31l0,.19.08,0,.09,0,.07,0,0,.09,0,.06s0,0,0,.05a.14.14,0,0,1,0,.09.11.11,0,0,0,0,.07l.09.05a.13.13,0,0,0,.06-.19c.13-.16.22,0,.25.13a4.54,4.54,0,0,0,.07.58.07.07,0,0,1,.12,0c.08-.06.07,0,0,.05s0,0,0,.06,0,.08,0,.12a.5.5,0,0,1,0,.12.1.1,0,0,0,0,0,.13.13,0,0,0,0,.06.11.11,0,0,1,0,.06.15.15,0,0,0,0,.08,2.54,2.54,0,0,1,.38.16,2.54,2.54,0,0,0,.55,0v-.07l0-.07a.72.72,0,0,1,.08-.32.21.21,0,0,1,.1-.14.12.12,0,0,1,.1-.09s.07,0,.15,0a.06.06,0,0,1,.06,0,.18.18,0,0,0,.08-.05c0,.05,0,.08,0,.11l0,.08s0,.06,0,.13a.65.65,0,0,0,0,.2l0,0a.08.08,0,0,1,0,.06.2.2,0,0,1-.05.09v.08s0,.06,0,.08,0,.07,0,.11,0,0,0,.08,0,.09,0,.09a.59.59,0,0,1,0,.11.37.37,0,0,0,.07.14v.09a.52.52,0,0,0-.05.24.53.53,0,0,0,0,.11c0,.11-.05.12-.1.11s-.08-.1,0-.18v-.07l0-.08v-.17l-.12,0s0,.05,0,0,0-.11,0-.09l-.08,0s0,.1,0,.13a.25.25,0,0,1-.09.13,5.24,5.24,0,0,0,0,.41l.06.09h-.2s0,0,0-.08a.56.56,0,0,0,0-.36l0-.08c.08-.05,0-.15,0-.22a1.47,1.47,0,0,1,0,.26.28.28,0,0,0,0,.09.3.3,0,0,1,0,.1.06.06,0,0,1,0,.08l0,.09v.1a.11.11,0,0,1-.14-.05v-.08s0,0-.06,0a.54.54,0,0,1,0-.17l0-.08,0-.06a.81.81,0,0,0,0-.22.39.39,0,0,0-.06-.11v.83h1.12v.07h.34v.18H38v.18h6.92l-.4.53v.88h.18v.18h.7l.36.18-.36.18v.17l-.7.53v1.07H45l-.35.53v8H43.24v-.53l.18-.18V38.61l-.18-.17H41.66l-.18.17v7.62l.18.18v.53H40.07v-.53l.18-.18V38.61l-.18-.17H38.13l-.17.17v7.62l.17.18v.53H36.54v-.53l.18-.18V38.61l-.18-.17H33.37l-.18.17v7.62l.18.18v.53H31.78v-.53l.18-.18V38.61l-.18-.17H29.84l-.17.17v7.62l.17.18v.53H28.27v-.53l.17-.18V38.61l-.17-.17H26.67l-.18.17v7.62l.18.18v.53H25.26V39l-.35-.53h.35V37.37l-.71-.53v-.17l-.35-.18.35-.18h.71v-.18h.18v-.88L25,34.72H32v-.18h.18v-.18h.25v-.07h.83s0,0,.05-.1v-.06a.55.55,0,0,0,0-.22s0-.15,0-.18v-.14a.91.91,0,0,1-.07-.14h-.07s0,0,0,.06-.09,0-.18,0,0,.06-.08,0,0,0,0,.05,0,.09,0,.24,0,0,0,0,.07.08,0,.15-.11,0-.14-.07a.28.28,0,0,0,0-.13.86.86,0,0,0,0-.28l0-.08s.11,0,.08-.14,0-.09,0-.11l0-.12a.11.11,0,0,1,0-.09.2.2,0,0,1,.08-.12v-.08l-.09,0s0,0-.09,0l0-.07s0-.09,0-.14v-.07l0-.08s0,0,0-.05a.16.16,0,0,0,0-.07l0,0s0,0,.09,0,.07-.07.11-.07l.06,0,.12.09a.23.23,0,0,1,.06.12,2.09,2.09,0,0,1,.16.4,2,2,0,0,0,.78-.09l0-.22v-.09s0-.06,0-.13,0,0,0-.08.05,0,.05.05.09-.06.17,0a.27.27,0,0,1,0,.17v.07l0,.13a1.91,1.91,0,0,0,.28-.15c0-.22,0-.43-.06-.65a1.55,1.55,0,0,1,0-.4.12.12,0,0,1,.2,0l.06-.07.07-.05a1.17,1.17,0,0,1,0-.28v-.08l0-.06s0,0,0-.05a.28.28,0,0,1-.27-.28.29.29,0,0,1,.14-.24s0-.07,0-.07a.31.31,0,0,0,0-.07s0,0-.06,0,0,0-.07,0,0,0,0-.08,0,0-.08,0,0,0-.05-.07,0,0,0,0,0,0,0-.06,0,0,0-.06-.06,0,0-.07,0-.05,0-.06.06,0,.09,0,.19.1.28.17.06.05,0,.09a.11.11,0,0,0,.09.06s0-.07,0-.14,0,0,0-.06,0,0,.05-.05l0,.05a.2.2,0,0,0,0,0,.51.51,0,0,0,0,.13l.08,0s0-.05,0-.06,0-.06.06-.08l.18-.1S35.3,29.51,35.34,29.5Z"/></clipPath><clipPath id="clip-path-8" transform="translate(2 2)"><rect class="cls-1" y="57.49" width="71.26" height="2.68"/></clipPath><clipPath id="clip-path-9" transform="translate(2 2)"><rect class="cls-1" x="101.53" y="35.28" width="312.47" height="52.33"/></clipPath></defs><g id="Layer_2" data-name="Layer 2"><g id="Layer_1-2" data-name="Layer 1"><g class="cls-3"><rect class="cls-4" y="62.77" width="75.26" height="6.68"/></g><g class="cls-5"><rect class="cls-6" y="68.04" width="75.26" height="6.68"/></g><g class="cls-7"><g class="cls-8"><rect class="cls-9" width="75.26" height="53.62"/></g></g><g class="cls-10"><rect class="cls-11" y="52.21" width="75.26" height="6.68"/></g><g class="cls-12"><g class="cls-8"><rect class="cls-9" x="24.2" y="29.5" width="25.51" height="21.43"/></g></g><g class="cls-13"><rect class="cls-14" y="57.49" width="75.26" height="6.68"/></g><g class="cls-15"><text class="cls-16" transform="translate(103.53 69.28)"><tspan class="cls-17">ber</tspan><tspan x="51.89" y="0">l</tspan><tspan class="cls-17" x="61.01" y="0">in</tspan><tspan class="cls-18" x="90.87" y="0">H</tspan><tspan class="cls-19" x="114.72" y="0">i</tspan><tspan class="cls-20" x="124.43" y="0">s</tspan><tspan class="cls-19" x="141.64" y="0">to</tspan><tspan class="cls-21" x="173.67" y="0">r</tspan><tspan x="187.42" y="0">y </tspan><tspan class="cls-19" x="213.27" y="0">e</tspan><tspan class="cls-22" x="231.85" y="0">.V</tspan><tspan x="257.58" y="0">.</tspan></text></g></g></g></svg>